<?xml version="1.0" encoding="UTF-8" standalone="no"?>
<!DOCTYPE svg PUBLIC "-//W3C//DTD SVG 1.1//EN"
 "http://www.w3.org/Graphics/SVG/1.1/DTD/svg11.dtd">
<!-- Generated by graphviz version 13.1.2 (20250808.2320)
 -->
<!-- Pages: 1 -->
<svg width="1391pt" height="828pt"
 viewBox="0.00 0.00 1391.00 828.00" xmlns="http://www.w3.org/2000/svg" xmlns:xlink="http://www.w3.org/1999/xlink">
<g id="graph0" class="graph" transform="scale(1 1) rotate(0) translate(4 824)">
<polygon fill="white" stroke="none" points="-4,4 -4,-824 1387,-824 1387,4 -4,4"/>
<g id="clust1" class="cluster">
<title>cluster_MAISON</title>
<polygon fill="lightgreen" stroke="lightgreen" points="8,-381.5 8,-812 543,-812 543,-381.5 8,-381.5"/>
<text xml:space="preserve" text-anchor="middle" x="275.5" y="-794.7" font-family="Times New Roman,serif" font-size="14.00">Maison</text>
</g>
<g id="clust2" class="cluster">
<title>cluster_EXTERIEUR</title>
<polygon fill="beige" stroke="beige" points="161,-8 161,-347 1375,-347 1375,-8 161,-8"/>
<text xml:space="preserve" text-anchor="middle" x="768" y="-329.7" font-family="Times New Roman,serif" font-size="14.00">Extérieur</text>
</g>
<g id="clust3" class="cluster">
<title>cluster_POTEAU_ROUTE</title>
<polygon fill="bisque" stroke="bisque" points="697,-127 697,-203.5 1163,-203.5 1163,-127 697,-127"/>
<text xml:space="preserve" text-anchor="middle" x="930" y="-186.2" font-family="Times New Roman,serif" font-size="14.00">Poteau route</text>
</g>
<g id="clust4" class="cluster">
<title>cluster_POTEAU_CENTRAL</title>
<polygon fill="bisque" stroke="bisque" points="169,-127 169,-314.5 515,-314.5 515,-127 169,-127"/>
<text xml:space="preserve" text-anchor="middle" x="342" y="-297.2" font-family="Times New Roman,serif" font-size="14.00">Poteau central</text>
</g>
<g id="clust5" class="cluster">
<title>cluster_POTEAU_HAIE</title>
<polygon fill="bisque" stroke="bisque" points="995,-16 995,-92.5 1367,-92.5 1367,-16 995,-16"/>
<text xml:space="preserve" text-anchor="middle" x="1181" y="-75.2" font-family="Times New Roman,serif" font-size="14.00">Poteau haie</text>
</g>
<!-- BOUTON_PORTAIL -->
<g id="node1" class="node">
<title>BOUTON_PORTAIL</title>
<polygon fill="none" stroke="black" points="212.25,-779.5 77.75,-779.5 77.75,-743.5 212.25,-743.5 212.25,-779.5"/>
<text xml:space="preserve" text-anchor="middle" x="145" y="-756.45" font-family="Times New Roman,serif" font-size="14.00">BOUTON_PORTAIL</text>
</g>
<!-- INTERPHONE_INTERIEUR -->
<g id="node2" class="node">
<title>INTERPHONE_INTERIEUR</title>
<polygon fill="none" stroke="black" points="234.38,-691 55.62,-691 55.62,-655 234.38,-655 234.38,-691"/>
<text xml:space="preserve" text-anchor="middle" x="145" y="-667.95" font-family="Times New Roman,serif" font-size="14.00">INTERPHONE_INTERIEUR</text>
</g>
<!-- BOUTON_PORTAIL&#45;&#45;INTERPHONE_INTERIEUR -->
<g id="edge4" class="edge">
<title>BOUTON_PORTAIL&#45;&#45;INTERPHONE_INTERIEUR</title>
<path fill="none" stroke="black" d="M145,-743.41C145,-728.34 145,-706.49 145,-691.35"/>
<text xml:space="preserve" text-anchor="middle" x="168.62" y="-712.2" font-family="Times New Roman,serif" font-size="14.00">TEL(bp)</text>
</g>
<!-- J20_CAVE_GRAVIER -->
<g id="node3" class="node">
<title>J20_CAVE_GRAVIER</title>
<ellipse fill="none" stroke="black" cx="145" cy="-584.5" rx="96.9" ry="18"/>
<text xml:space="preserve" text-anchor="middle" x="145" y="-579.45" font-family="Times New Roman,serif" font-size="14.00">J20_CAVE_GRAVIER</text>
</g>
<!-- INTERPHONE_INTERIEUR&#45;&#45;J20_CAVE_GRAVIER -->
<g id="edge5" class="edge">
<title>INTERPHONE_INTERIEUR&#45;&#45;J20_CAVE_GRAVIER</title>
<path fill="none" stroke="black" d="M145,-654.91C145,-639.84 145,-617.99 145,-602.85"/>
<text xml:space="preserve" text-anchor="middle" x="191.88" y="-623.7" font-family="Times New Roman,serif" font-size="14.00">TEL(int+bp+ser)</text>
</g>
<!-- J21_TRANSFO_GARAGE -->
<g id="node5" class="node">
<title>J21_TRANSFO_GARAGE</title>
<ellipse fill="none" stroke="black" cx="219" cy="-496" rx="113.28" ry="18"/>
<text xml:space="preserve" text-anchor="middle" x="219" y="-490.95" font-family="Times New Roman,serif" font-size="14.00">J21_TRANSFO_GARAGE</text>
</g>
<!-- J20_CAVE_GRAVIER&#45;&#45;J21_TRANSFO_GARAGE -->
<g id="edge6" class="edge">
<title>J20_CAVE_GRAVIER&#45;&#45;J21_TRANSFO_GARAGE</title>
<path fill="none" stroke="black" d="M156.76,-566.28C164.02,-556.02 173.73,-542.91 183.25,-532 188.62,-525.85 194.86,-519.49 200.62,-513.92"/>
<text xml:space="preserve" text-anchor="middle" x="230.12" y="-535.2" font-family="Times New Roman,serif" font-size="14.00">TEL(int+bp+ser)</text>
</g>
<!-- TRANSFO_GARAGE -->
<g id="node4" class="node">
<title>TRANSFO_GARAGE</title>
<polygon fill="none" stroke="black" points="400.25,-602.5 259.75,-602.5 259.75,-566.5 400.25,-566.5 400.25,-602.5"/>
<text xml:space="preserve" text-anchor="middle" x="330" y="-579.45" font-family="Times New Roman,serif" font-size="14.00">TRANSFO_GARAGE</text>
</g>
<!-- TRANSFO_GARAGE&#45;&#45;J21_TRANSFO_GARAGE -->
<g id="edge8" class="edge">
<title>TRANSFO_GARAGE&#45;&#45;J21_TRANSFO_GARAGE</title>
<path fill="none" stroke="black" d="M314.18,-566.24C304.08,-555.71 290.41,-542.34 277,-532 268.53,-525.46 258.75,-519.15 249.66,-513.73"/>
<text xml:space="preserve" text-anchor="middle" x="337.88" y="-535.2" font-family="Times New Roman,serif" font-size="14.00">TEL(15.5VAC)</text>
</g>
<!-- J22_PENETRATION_MURALE -->
<g id="node6" class="node">
<title>J22_PENETRATION_MURALE</title>
<ellipse fill="none" stroke="black" cx="151" cy="-407.5" rx="134.78" ry="18"/>
<text xml:space="preserve" text-anchor="middle" x="151" y="-402.45" font-family="Times New Roman,serif" font-size="14.00">J22_PENETRATION_MURALE</text>
</g>
<!-- J21_TRANSFO_GARAGE&#45;&#45;J22_PENETRATION_MURALE -->
<g id="edge7" class="edge">
<title>J21_TRANSFO_GARAGE&#45;&#45;J22_PENETRATION_MURALE</title>
<path fill="none" stroke="black" d="M205.57,-477.91C193.72,-462.84 176.54,-440.99 164.64,-425.85"/>
<text xml:space="preserve" text-anchor="middle" x="236.47" y="-446.7" font-family="Times New Roman,serif" font-size="14.00">TEL(A(int+ser))</text>
</g>
<!-- CARTE_ELECTRONIQUE_PORTAIL -->
<g id="node7" class="node">
<title>CARTE_ELECTRONIQUE_PORTAIL</title>
<polygon fill="none" stroke="black" points="534.62,-425.5 303.38,-425.5 303.38,-389.5 534.62,-389.5 534.62,-425.5"/>
<text xml:space="preserve" text-anchor="middle" x="419" y="-402.45" font-family="Times New Roman,serif" font-size="14.00">CARTE_ELECTRONIQUE_PORTAIL</text>
</g>
<!-- J21_TRANSFO_GARAGE&#45;&#45;CARTE_ELECTRONIQUE_PORTAIL -->
<g id="edge9" class="edge">
<title>J21_TRANSFO_GARAGE&#45;&#45;CARTE_ELECTRONIQUE_PORTAIL</title>
<path fill="none" stroke="black" d="M256.62,-478.73C291.47,-463.66 343.15,-441.3 378.81,-425.88"/>
<text xml:space="preserve" text-anchor="middle" x="360.54" y="-446.7" font-family="Times New Roman,serif" font-size="14.00">TEL(bp)</text>
</g>
<!-- J23_BOITE_DERIVATION_PORTAIL -->
<g id="node15" class="node">
<title>J23_BOITE_DERIVATION_PORTAIL</title>
<ellipse fill="none" stroke="black" cx="350" cy="-264" rx="157.3" ry="18"/>
<text xml:space="preserve" text-anchor="middle" x="350" y="-258.95" font-family="Times New Roman,serif" font-size="14.00">J23_BOITE_DERIVATION_PORTAIL</text>
</g>
<!-- J22_PENETRATION_MURALE&#45;&#45;J23_BOITE_DERIVATION_PORTAIL -->
<g id="edge21" class="edge">
<title>J22_PENETRATION_MURALE&#45;&#45;J23_BOITE_DERIVATION_PORTAIL</title>
<path fill="none" stroke="black" d="M151.73,-389.09C153,-378.24 156.19,-364.58 164,-355 194.82,-317.18 245.39,-294.14 286.02,-280.86"/>
<text xml:space="preserve" text-anchor="middle" x="200" y="-358.2" font-family="Times New Roman,serif" font-size="14.00">TEL(int+ser)</text>
</g>
<!-- CARTE_ELECTRONIQUE_PORTAIL&#45;&#45;J23_BOITE_DERIVATION_PORTAIL -->
<g id="edge22" class="edge">
<title>CARTE_ELECTRONIQUE_PORTAIL&#45;&#45;J23_BOITE_DERIVATION_PORTAIL</title>
<path fill="none" stroke="black" d="M332.39,-389.02C289.69,-380.38 247.19,-371.73 247,-371.5 219.5,-337.84 273.19,-302.21 312.87,-281.88"/>
<text xml:space="preserve" text-anchor="middle" x="287.5" y="-358.2" font-family="Times New Roman,serif" font-size="14.00">TEL(P10(sec))</text>
</g>
<!-- CARTE_ELECTRONIQUE_PORTAIL&#45;&#45;J23_BOITE_DERIVATION_PORTAIL -->
<g id="edge23" class="edge">
<title>CARTE_ELECTRONIQUE_PORTAIL&#45;&#45;J23_BOITE_DERIVATION_PORTAIL</title>
<path fill="none" stroke="black" d="M368.96,-389.21C361.72,-384.57 355.22,-378.76 350.75,-371.5 333.88,-344.11 339.6,-304.75 344.99,-282.35"/>
<text xml:space="preserve" text-anchor="middle" x="375.88" y="-358.2" font-family="Times New Roman,serif" font-size="14.00">TEL(ant)</text>
</g>
<!-- CARTE_ELECTRONIQUE_PORTAIL&#45;&#45;J23_BOITE_DERIVATION_PORTAIL -->
<g id="edge24" class="edge">
<title>CARTE_ELECTRONIQUE_PORTAIL&#45;&#45;J23_BOITE_DERIVATION_PORTAIL</title>
<path fill="none" stroke="black" d="M413.76,-389.03C410.51,-378.92 406.01,-366.04 401,-355 389.13,-328.83 372.17,-300.22 361.13,-282.44"/>
<text xml:space="preserve" text-anchor="middle" x="451.13" y="-358.2" font-family="Times New Roman,serif" font-size="14.00">MBVN1N2(P4)</text>
</g>
<!-- CARTE_ELECTRONIQUE_PORTAIL&#45;&#45;J23_BOITE_DERIVATION_PORTAIL -->
<g id="edge25" class="edge">
<title>CARTE_ELECTRONIQUE_PORTAIL&#45;&#45;J23_BOITE_DERIVATION_PORTAIL</title>
<path fill="none" stroke="black" d="M479.53,-389.18C496.04,-381.05 507.36,-369.82 499,-355 478.43,-318.55 436.51,-295.19 402.35,-281.44"/>
<text xml:space="preserve" text-anchor="middle" x="545.68" y="-358.2" font-family="Times New Roman,serif" font-size="14.00">MBVN1N2(P5)</text>
</g>
<!-- ALIMENTATION_GARAGE -->
<g id="node8" class="node">
<title>ALIMENTATION_GARAGE</title>
<ellipse fill="none" stroke="black" cx="368" cy="-761.5" rx="123" ry="18"/>
<text xml:space="preserve" text-anchor="middle" x="368" y="-756.45" font-family="Times New Roman,serif" font-size="14.00">ALIMENTATION_GARAGE</text>
</g>
<!-- DISJONCTEUR_GARAGE -->
<g id="node9" class="node">
<title>DISJONCTEUR_GARAGE</title>
<polygon fill="none" stroke="black" points="452.88,-691 283.12,-691 283.12,-655 452.88,-655 452.88,-691"/>
<text xml:space="preserve" text-anchor="middle" x="368" y="-667.95" font-family="Times New Roman,serif" font-size="14.00">DISJONCTEUR_GARAGE</text>
</g>
<!-- ALIMENTATION_GARAGE&#45;&#45;DISJONCTEUR_GARAGE -->
<g id="edge1" class="edge">
<title>ALIMENTATION_GARAGE&#45;&#45;DISJONCTEUR_GARAGE</title>
<path fill="none" stroke="black" d="M368,-743.41C368,-728.34 368,-706.49 368,-691.35"/>
<text xml:space="preserve" text-anchor="middle" x="382.25" y="-712.2" font-family="Times New Roman,serif" font-size="14.00">NBV</text>
</g>
<!-- DISJONCTEUR_GARAGE&#45;&#45;TRANSFO_GARAGE -->
<g id="edge2" class="edge">
<title>DISJONCTEUR_GARAGE&#45;&#45;TRANSFO_GARAGE</title>
<path fill="none" stroke="black" d="M360.49,-654.91C353.87,-639.84 344.27,-617.99 337.62,-602.85"/>
<text xml:space="preserve" text-anchor="middle" x="366.65" y="-623.7" font-family="Times New Roman,serif" font-size="14.00">NBV</text>
</g>
<!-- DISJONCTEUR_GARAGE&#45;&#45;CARTE_ELECTRONIQUE_PORTAIL -->
<g id="edge3" class="edge">
<title>DISJONCTEUR_GARAGE&#45;&#45;CARTE_ELECTRONIQUE_PORTAIL</title>
<path fill="none" stroke="black" d="M381.54,-654.54C391.11,-641.12 403.23,-621.68 409,-602.5 427.9,-539.69 423.85,-460.33 420.82,-425.83"/>
<text xml:space="preserve" text-anchor="middle" x="457.89" y="-535.2" font-family="Times New Roman,serif" font-size="14.00">NBV(ALIM)</text>
</g>
<!-- LAMPES_ALLEE -->
<g id="node10" class="node">
<title>LAMPES_ALLEE</title>
<ellipse fill="none" stroke="black" cx="606" cy="-153" rx="81.55" ry="18"/>
<text xml:space="preserve" text-anchor="middle" x="606" y="-147.95" font-family="Times New Roman,serif" font-size="14.00">LAMPES_ALLEE</text>
</g>
<!-- SONNETTE -->
<g id="node11" class="node">
<title>SONNETTE</title>
<polygon fill="none" stroke="black" points="790.88,-171 705.12,-171 705.12,-135 790.88,-135 790.88,-171"/>
<text xml:space="preserve" text-anchor="middle" x="748" y="-147.95" font-family="Times New Roman,serif" font-size="14.00">SONNETTE</text>
</g>
<!-- GACHE_ELEC -->
<g id="node12" class="node">
<title>GACHE_ELEC</title>
<polygon fill="none" stroke="black" points="911.5,-171 808.5,-171 808.5,-135 911.5,-135 911.5,-171"/>
<text xml:space="preserve" text-anchor="middle" x="860" y="-147.95" font-family="Times New Roman,serif" font-size="14.00">GACHE_ELEC</text>
</g>
<!-- LAMPE_AUTO -->
<g id="node13" class="node">
<title>LAMPE_AUTO</title>
<polygon fill="none" stroke="black" points="1036.38,-171 929.62,-171 929.62,-135 1036.38,-135 1036.38,-171"/>
<text xml:space="preserve" text-anchor="middle" x="983" y="-147.95" font-family="Times New Roman,serif" font-size="14.00">LAMPE_AUTO</text>
</g>
<!-- ARRIERE -->
<g id="node14" class="node">
<title>ARRIERE</title>
<ellipse fill="none" stroke="black" cx="1105" cy="-153" rx="50.33" ry="18"/>
<text xml:space="preserve" text-anchor="middle" x="1105" y="-147.95" font-family="Times New Roman,serif" font-size="14.00">ARRIERE</text>
</g>
<!-- J23_BOITE_DERIVATION_PORTAIL&#45;&#45;LAMPES_ALLEE -->
<g id="edge20" class="edge">
<title>J23_BOITE_DERIVATION_PORTAIL&#45;&#45;LAMPES_ALLEE</title>
<path fill="none" stroke="black" d="M437.72,-248.68C458.96,-243.59 481.23,-236.85 501,-228 533.77,-213.33 566.85,-187.84 586.89,-170.95"/>
<text xml:space="preserve" text-anchor="middle" x="554.78" y="-214.7" font-family="Times New Roman,serif" font-size="14.00">NBV(P6)</text>
</g>
<!-- J23_BOITE_DERIVATION_PORTAIL&#45;&#45;SONNETTE -->
<g id="edge12" class="edge">
<title>J23_BOITE_DERIVATION_PORTAIL&#45;&#45;SONNETTE</title>
<path fill="none" stroke="black" d="M492.78,-256.24C564.05,-251.14 641.81,-242.46 674,-228 701.01,-215.86 723.63,-189.18 736.49,-171.4"/>
<text xml:space="preserve" text-anchor="middle" x="721.99" y="-214.7" font-family="Times New Roman,serif" font-size="14.00">TEL(int)</text>
</g>
<!-- J23_BOITE_DERIVATION_PORTAIL&#45;&#45;GACHE_ELEC -->
<g id="edge13" class="edge">
<title>J23_BOITE_DERIVATION_PORTAIL&#45;&#45;GACHE_ELEC</title>
<path fill="none" stroke="black" d="M492.24,-256.06C587.15,-250.37 702.86,-241.12 750,-228 786.81,-217.76 822.13,-189.68 842.42,-171.21"/>
<text xml:space="preserve" text-anchor="middle" x="811.17" y="-214.7" font-family="Times New Roman,serif" font-size="14.00">TEL(ser)</text>
</g>
<!-- J23_BOITE_DERIVATION_PORTAIL&#45;&#45;LAMPE_AUTO -->
<g id="edge10" class="edge">
<title>J23_BOITE_DERIVATION_PORTAIL&#45;&#45;LAMPE_AUTO</title>
<path fill="none" stroke="black" d="M505.05,-260.72C602,-257.13 729.08,-248.47 840,-228 876.99,-221.17 887.7,-220.99 921,-203.5 937.22,-194.98 953.32,-181.95 965.05,-171.4"/>
<text xml:space="preserve" text-anchor="middle" x="947.22" y="-214.7" font-family="Times New Roman,serif" font-size="14.00">MBVN1N2(P2)</text>
</g>
<!-- J23_BOITE_DERIVATION_PORTAIL&#45;&#45;ARRIERE -->
<g id="edge11" class="edge">
<title>J23_BOITE_DERIVATION_PORTAIL&#45;&#45;ARRIERE</title>
<path fill="none" stroke="black" d="M506.29,-261.66C667.06,-259.01 906.15,-251.15 995,-228 1032.64,-218.19 1068.52,-189.08 1088.56,-170.43"/>
<text xml:space="preserve" text-anchor="middle" x="1060.4" y="-214.7" font-family="Times New Roman,serif" font-size="14.00">NBV(P9?)</text>
</g>
<!-- RECEPTEUR_IR -->
<g id="node16" class="node">
<title>RECEPTEUR_IR</title>
<polygon fill="none" stroke="black" points="290.75,-171 177.25,-171 177.25,-135 290.75,-135 290.75,-171"/>
<text xml:space="preserve" text-anchor="middle" x="234" y="-147.95" font-family="Times New Roman,serif" font-size="14.00">RECEPTEUR_IR</text>
</g>
<!-- J23_BOITE_DERIVATION_PORTAIL&#45;&#45;RECEPTEUR_IR -->
<g id="edge14" class="edge">
<title>J23_BOITE_DERIVATION_PORTAIL&#45;&#45;RECEPTEUR_IR</title>
<path fill="none" stroke="black" d="M286.23,-247.24C275.87,-242.42 266.01,-236.14 258.25,-228 243.51,-212.54 237.73,-187.97 235.46,-171.43"/>
<text xml:space="preserve" text-anchor="middle" x="302.12" y="-214.7" font-family="Times New Roman,serif" font-size="14.00">MBVN1N2(P3)</text>
</g>
<!-- MOTEUR_M2 -->
<g id="node17" class="node">
<title>MOTEUR_M2</title>
<polygon fill="none" stroke="black" points="409,-171 309,-171 309,-135 409,-135 409,-171"/>
<text xml:space="preserve" text-anchor="middle" x="359" y="-147.95" font-family="Times New Roman,serif" font-size="14.00">MOTEUR_M2</text>
</g>
<!-- J23_BOITE_DERIVATION_PORTAIL&#45;&#45;MOTEUR_M2 -->
<g id="edge15" class="edge">
<title>J23_BOITE_DERIVATION_PORTAIL&#45;&#45;MOTEUR_M2</title>
<path fill="none" stroke="black" d="M349.46,-245.81C349.3,-235.78 349.36,-222.91 350.25,-211.5 351.31,-197.91 353.69,-182.66 355.69,-171.29"/>
<text xml:space="preserve" text-anchor="middle" x="394.12" y="-214.7" font-family="Times New Roman,serif" font-size="14.00">MBVN1N2(P8)</text>
</g>
<!-- ANTENNE -->
<g id="node18" class="node">
<title>ANTENNE</title>
<polygon fill="none" stroke="black" points="506.88,-171 427.12,-171 427.12,-135 506.88,-135 506.88,-171"/>
<text xml:space="preserve" text-anchor="middle" x="467" y="-147.95" font-family="Times New Roman,serif" font-size="14.00">ANTENNE</text>
</g>
<!-- J23_BOITE_DERIVATION_PORTAIL&#45;&#45;ANTENNE -->
<g id="edge16" class="edge">
<title>J23_BOITE_DERIVATION_PORTAIL&#45;&#45;ANTENNE</title>
<path fill="none" stroke="black" d="M409.91,-246.92C420.21,-242.11 430.11,-235.93 438,-228 453.38,-212.55 460.82,-187.98 464.26,-171.44"/>
<text xml:space="preserve" text-anchor="middle" x="473.15" y="-214.7" font-family="Times New Roman,serif" font-size="14.00">MB(ant)</text>
</g>
<!-- MOTEUR_M1 -->
<g id="node20" class="node">
<title>MOTEUR_M1</title>
<polygon fill="none" stroke="black" points="1231,-60 1131,-60 1131,-24 1231,-24 1231,-60"/>
<text xml:space="preserve" text-anchor="middle" x="1181" y="-36.95" font-family="Times New Roman,serif" font-size="14.00">MOTEUR_M1</text>
</g>
<!-- J23_BOITE_DERIVATION_PORTAIL&#45;&#45;MOTEUR_M1 -->
<g id="edge17" class="edge">
<title>J23_BOITE_DERIVATION_PORTAIL&#45;&#45;MOTEUR_M1</title>
<path fill="none" stroke="black" d="M505.03,-260.65C688.96,-257 984.36,-248.15 1093,-228 1127.06,-221.68 1145.51,-230.68 1167,-203.5 1200.22,-161.48 1191.57,-92.52 1185.11,-60.43"/>
<text xml:space="preserve" text-anchor="middle" x="1234.85" y="-147.95" font-family="Times New Roman,serif" font-size="14.00">MBVN1N2(P1)</text>
</g>
<!-- CLE_SECOURS -->
<g id="node21" class="node">
<title>CLE_SECOURS</title>
<polygon fill="none" stroke="black" points="1358.5,-60 1249.5,-60 1249.5,-24 1358.5,-24 1358.5,-60"/>
<text xml:space="preserve" text-anchor="middle" x="1304" y="-36.95" font-family="Times New Roman,serif" font-size="14.00">CLE_SECOURS</text>
</g>
<!-- J23_BOITE_DERIVATION_PORTAIL&#45;&#45;CLE_SECOURS -->
<g id="edge18" class="edge">
<title>J23_BOITE_DERIVATION_PORTAIL&#45;&#45;CLE_SECOURS</title>
<path fill="none" stroke="black" d="M505.98,-261.28C663.9,-258.3 914.97,-250.18 1131,-228 1199.07,-221.01 1235.34,-252.6 1283,-203.5 1320.78,-164.58 1313.53,-93.12 1307.67,-60.31"/>
<text xml:space="preserve" text-anchor="middle" x="1337.77" y="-147.95" font-family="Times New Roman,serif" font-size="14.00">NBV(P7)</text>
</g>
<!-- EMETTEUR_IR -->
<g id="node19" class="node">
<title>EMETTEUR_IR</title>
<polygon fill="none" stroke="black" points="1112.5,-60 1003.5,-60 1003.5,-24 1112.5,-24 1112.5,-60"/>
<text xml:space="preserve" text-anchor="middle" x="1058" y="-36.95" font-family="Times New Roman,serif" font-size="14.00">EMETTEUR_IR</text>
</g>
<!-- RECEPTEUR_IR&#45;&#45;EMETTEUR_IR -->
<g id="edge19" class="edge">
<title>RECEPTEUR_IR&#45;&#45;EMETTEUR_IR</title>
<path fill="none" stroke="black" d="M275.4,-134.51C283.45,-131.63 291.9,-128.95 300,-127 558.42,-64.79 877.67,-48.49 1003.43,-44.36"/>
<text xml:space="preserve" text-anchor="middle" x="443.75" y="-103.7" font-family="Times New Roman,serif" font-size="14.00">NBV(?)</text>
</g>
</g>
</svg>
