<?xml version="1.0" encoding="UTF-8" standalone="no"?>
<!DOCTYPE svg PUBLIC "-//W3C//DTD SVG 1.1//EN"
 "http://www.w3.org/Graphics/SVG/1.1/DTD/svg11.dtd">
<!-- Generated by graphviz version 13.1.2 (20250808.2320)
 -->
<!-- Pages: 1 -->
<svg width="1580pt" height="852pt"
 viewBox="0.00 0.00 1580.00 852.00" xmlns="http://www.w3.org/2000/svg" xmlns:xlink="http://www.w3.org/1999/xlink">
<g id="graph0" class="graph" transform="scale(1 1) rotate(0) translate(4 847.5)">
<polygon fill="white" stroke="none" points="-4,4 -4,-847.5 1576.15,-847.5 1576.15,4 -4,4"/>
<g id="clust1" class="cluster">
<title>cluster_EXTERIEUR</title>
<polygon fill="none" stroke="black" points="136.26,-255.5 136.26,-436.5 528.26,-436.5 528.26,-255.5 136.26,-255.5"/>
</g>
<g id="clust2" class="cluster">
<title>cluster_SONNETTE</title>
<polygon fill="beige" stroke="beige" points="144.26,-352 144.26,-428.5 353.26,-428.5 353.26,-352 144.26,-352"/>
<text xml:space="preserve" text-anchor="middle" x="248.76" y="-411.2" font-family="Times New Roman,serif" font-size="14.00">Sonnette/interphone extérieur</text>
</g>
<g id="clust3" class="cluster">
<title>cluster_GACHE</title>
<polygon fill="beige" stroke="beige" points="361.26,-263.5 361.26,-428.5 520.26,-428.5 520.26,-263.5 361.26,-263.5"/>
<text xml:space="preserve" text-anchor="middle" x="440.76" y="-411.2" font-family="Times New Roman,serif" font-size="14.00">Gâche portillon</text>
</g>
<g id="clust4" class="cluster">
<title>cluster_ALIM</title>
<polygon fill="beige" stroke="beige" points="726.26,-759 726.26,-835.5 1233.26,-835.5 1233.26,-759 726.26,-759"/>
<text xml:space="preserve" text-anchor="middle" x="979.76" y="-818.2" font-family="Times New Roman,serif" font-size="14.00">Alimentation</text>
</g>
<g id="clust5" class="cluster">
<title>cluster_INTERPHONE</title>
<polygon fill="beige" stroke="beige" points="486.26,-471 486.26,-724.5 1079.26,-724.5 1079.26,-471 486.26,-471"/>
<text xml:space="preserve" text-anchor="middle" x="782.76" y="-707.2" font-family="Times New Roman,serif" font-size="14.00">Interphone intérieur</text>
</g>
<g id="clust6" class="cluster">
<title>cluster_BP_PORTAIL</title>
<polygon fill="beige" stroke="beige" points="1248.26,-648 1248.26,-835.5 1378.26,-835.5 1378.26,-648 1248.26,-648"/>
<text xml:space="preserve" text-anchor="middle" x="1313.26" y="-818.2" font-family="Times New Roman,serif" font-size="14.00">Bouton portail</text>
</g>
<g id="clust7" class="cluster">
<title>cluster_ZA3</title>
<polygon fill="beige" stroke="beige" points="1227.26,-352 1227.26,-428.5 1369.26,-428.5 1369.26,-352 1227.26,-352"/>
<text xml:space="preserve" text-anchor="middle" x="1298.26" y="-411.2" font-family="Times New Roman,serif" font-size="14.00">Carte portail ZA3 </text>
</g>
<!-- IE_JA_1 -->
<g id="node1" class="node">
<title>IE_JA_1</title>
<ellipse fill="none" stroke="black" cx="301.26" cy="-378" rx="43.67" ry="18"/>
<text xml:space="preserve" text-anchor="middle" x="301.26" y="-372.95" font-family="Times New Roman,serif" font-size="14.00">IE_JA_1</text>
</g>
<!-- IE_JA_2 -->
<g id="node2" class="node">
<title>IE_JA_2</title>
<ellipse fill="none" stroke="black" cx="196.26" cy="-378" rx="43.67" ry="18"/>
<text xml:space="preserve" text-anchor="middle" x="196.26" y="-372.95" font-family="Times New Roman,serif" font-size="14.00">IE_JA_2</text>
</g>
<!-- GACHE_1 -->
<g id="node3" class="node">
<title>GACHE_1</title>
<ellipse fill="none" stroke="black" cx="440.26" cy="-378" rx="51.86" ry="18"/>
<text xml:space="preserve" text-anchor="middle" x="440.26" y="-372.95" font-family="Times New Roman,serif" font-size="14.00">GACHE_1</text>
</g>
<!-- GACHE_2 -->
<g id="node4" class="node">
<title>GACHE_2</title>
<ellipse fill="none" stroke="black" cx="421.26" cy="-289.5" rx="51.86" ry="18"/>
<text xml:space="preserve" text-anchor="middle" x="421.26" y="-284.45" font-family="Times New Roman,serif" font-size="14.00">GACHE_2</text>
</g>
<!-- GACHE_1&#45;&#45;GACHE_2 -->
<g id="edge16" class="edge">
<title>GACHE_1&#45;&#45;GACHE_2</title>
<path fill="none" stroke="black" stroke-dasharray="5,2" d="M423.13,-360.67C418.53,-355.22 414.17,-348.79 411.76,-342 407.8,-330.86 410.31,-317.76 413.74,-307.55"/>
<text xml:space="preserve" text-anchor="middle" x="474.01" y="-328.7" font-family="Times New Roman,serif" font-size="14.00">Gâche(bobine/12VAC)</text>
</g>
<!-- J23_BOITE_DERIV_GACHE_2 -->
<g id="node26" class="node">
<title>J23_BOITE_DERIV_GACHE_2</title>
<ellipse fill="none" stroke="black" cx="418.26" cy="-195" rx="133.75" ry="18"/>
<text xml:space="preserve" text-anchor="middle" x="418.26" y="-189.95" font-family="Times New Roman,serif" font-size="14.00">J23_BOITE_DERIV_GACHE_2</text>
</g>
<!-- GACHE_2&#45;&#45;J23_BOITE_DERIV_GACHE_2 -->
<g id="edge17" class="edge">
<title>GACHE_2&#45;&#45;J23_BOITE_DERIV_GACHE_2</title>
<path fill="none" stroke="black" d="M410.09,-271.69C405.98,-264.54 401.83,-255.93 399.76,-247.5 398,-240.38 397.99,-238.12 399.76,-231 401.28,-224.86 404.1,-218.62 407.08,-213.13"/>
<text xml:space="preserve" text-anchor="middle" x="468.01" y="-234.2" font-family="Times New Roman,serif" font-size="14.00">TEL(ser)/GRIS_BLANC</text>
</g>
<!-- TRANSFO_GARAGE_POS -->
<g id="node5" class="node">
<title>TRANSFO_GARAGE_POS</title>
<ellipse fill="none" stroke="black" cx="851.26" cy="-785" rx="117.37" ry="18"/>
<text xml:space="preserve" text-anchor="middle" x="851.26" y="-779.95" font-family="Times New Roman,serif" font-size="14.00">TRANSFO_GARAGE_POS</text>
</g>
<!-- IE_1AD_POS -->
<g id="node7" class="node">
<title>IE_1AD_POS</title>
<ellipse fill="none" stroke="black" cx="858.26" cy="-674" rx="63.63" ry="18"/>
<text xml:space="preserve" text-anchor="middle" x="858.26" y="-668.95" font-family="Times New Roman,serif" font-size="14.00">IE_1AD_POS</text>
</g>
<!-- TRANSFO_GARAGE_POS&#45;&#45;IE_1AD_POS -->
<g id="edge8" class="edge">
<title>TRANSFO_GARAGE_POS&#45;&#45;IE_1AD_POS</title>
<path fill="none" stroke="black" d="M852.35,-766.97C853.66,-746.61 855.83,-712.73 857.15,-692.27"/>
<text xml:space="preserve" text-anchor="middle" x="918.67" y="-735.7" font-family="Times New Roman,serif" font-size="14.00">TEL(int+ser+bp)/GRIS</text>
</g>
<!-- TRANSFO_GARAGE_NEG -->
<g id="node6" class="node">
<title>TRANSFO_GARAGE_NEG</title>
<ellipse fill="none" stroke="black" cx="1106.26" cy="-785" rx="119.42" ry="18"/>
<text xml:space="preserve" text-anchor="middle" x="1106.26" y="-779.95" font-family="Times New Roman,serif" font-size="14.00">TRANSFO_GARAGE_NEG</text>
</g>
<!-- IE_1AD_NEG -->
<g id="node8" class="node">
<title>IE_1AD_NEG</title>
<ellipse fill="none" stroke="black" cx="1005.26" cy="-674" rx="65.68" ry="18"/>
<text xml:space="preserve" text-anchor="middle" x="1005.26" y="-668.95" font-family="Times New Roman,serif" font-size="14.00">IE_1AD_NEG</text>
</g>
<!-- TRANSFO_GARAGE_NEG&#45;&#45;IE_1AD_NEG -->
<g id="edge9" class="edge">
<title>TRANSFO_GARAGE_NEG&#45;&#45;IE_1AD_NEG</title>
<path fill="none" stroke="black" d="M1090.48,-766.97C1071.5,-746.49 1039.85,-712.34 1020.93,-691.91"/>
<text xml:space="preserve" text-anchor="middle" x="1145.21" y="-735.7" font-family="Times New Roman,serif" font-size="14.00">TEL(int+ser+bp)/BLANC</text>
</g>
<!-- IE_1AD_L1 -->
<g id="node9" class="node">
<title>IE_1AD_L1</title>
<ellipse fill="none" stroke="black" cx="849.26" cy="-585.5" rx="56.98" ry="18"/>
<text xml:space="preserve" text-anchor="middle" x="849.26" y="-580.45" font-family="Times New Roman,serif" font-size="14.00">IE_1AD_L1</text>
</g>
<!-- IE_1AD_POS&#45;&#45;IE_1AD_L1 -->
<g id="edge10" class="edge">
<title>IE_1AD_POS&#45;&#45;IE_1AD_L1</title>
<path fill="none" stroke="black" d="M856.48,-655.91C854.91,-640.84 852.64,-618.99 851.06,-603.85"/>
<text xml:space="preserve" text-anchor="middle" x="884.19" y="-624.7" font-family="Times New Roman,serif" font-size="14.00">TEL/GRIS</text>
</g>
<!-- IE_1AD_L2 -->
<g id="node10" class="node">
<title>IE_1AD_L2</title>
<ellipse fill="none" stroke="black" cx="845.26" cy="-497" rx="56.98" ry="18"/>
<text xml:space="preserve" text-anchor="middle" x="845.26" y="-491.95" font-family="Times New Roman,serif" font-size="14.00">IE_1AD_L2</text>
</g>
<!-- IE_1AD_L1&#45;&#45;IE_1AD_L2 -->
<g id="edge11" class="edge">
<title>IE_1AD_L1&#45;&#45;IE_1AD_L2</title>
<path fill="none" stroke="black" stroke-dasharray="5,2" d="M848.47,-567.41C847.77,-552.34 846.76,-530.49 846.06,-515.35"/>
<text xml:space="preserve" text-anchor="middle" x="886.61" y="-536.2" font-family="Times New Roman,serif" font-size="14.00">déverrouillage</text>
</g>
<!-- J21_TRANSFO_GACHE_1 -->
<g id="node19" class="node">
<title>J21_TRANSFO_GACHE_1</title>
<ellipse fill="none" stroke="black" cx="843.26" cy="-378" rx="115.84" ry="18"/>
<text xml:space="preserve" text-anchor="middle" x="843.26" y="-372.95" font-family="Times New Roman,serif" font-size="14.00">J21_TRANSFO_GACHE_1</text>
</g>
<!-- IE_1AD_L2&#45;&#45;J21_TRANSFO_GACHE_1 -->
<g id="edge12" class="edge">
<title>IE_1AD_L2&#45;&#45;J21_TRANSFO_GACHE_1</title>
<path fill="none" stroke="black" d="M844.96,-478.74C844.58,-456.62 843.93,-418.49 843.55,-396.33"/>
<text xml:space="preserve" text-anchor="middle" x="917.73" y="-447.7" font-family="Times New Roman,serif" font-size="14.00">TEL(int+ser+bp)/VIOLET</text>
</g>
<!-- IE_1AD_JA_1 -->
<g id="node11" class="node">
<title>IE_1AD_JA_1</title>
<ellipse fill="none" stroke="black" cx="710.26" cy="-674" rx="66.19" ry="18"/>
<text xml:space="preserve" text-anchor="middle" x="710.26" y="-668.95" font-family="Times New Roman,serif" font-size="14.00">IE_1AD_JA_1</text>
</g>
<!-- J23_TRANSFO_JA_1 -->
<g id="node27" class="node">
<title>J23_TRANSFO_JA_1</title>
<ellipse fill="none" stroke="black" cx="364.26" cy="-585.5" rx="94.34" ry="18"/>
<text xml:space="preserve" text-anchor="middle" x="364.26" y="-580.45" font-family="Times New Roman,serif" font-size="14.00">J23_TRANSFO_JA_1</text>
</g>
<!-- IE_1AD_JA_1&#45;&#45;J23_TRANSFO_JA_1 -->
<g id="edge21" class="edge">
<title>IE_1AD_JA_1&#45;&#45;J23_TRANSFO_JA_1</title>
<path fill="none" stroke="black" d="M671.17,-659.16C659.67,-655.31 647.02,-651.29 635.26,-648 565.09,-628.4 483.42,-610.52 428.22,-599.16"/>
<text xml:space="preserve" text-anchor="middle" x="661.45" y="-624.7" font-family="Times New Roman,serif" font-size="14.00">TEL(int+ser+bp)/JAUNE</text>
</g>
<!-- IE_1AD_JA_2 -->
<g id="node12" class="node">
<title>IE_1AD_JA_2</title>
<ellipse fill="none" stroke="black" cx="560.26" cy="-674" rx="66.19" ry="18"/>
<text xml:space="preserve" text-anchor="middle" x="560.26" y="-668.95" font-family="Times New Roman,serif" font-size="14.00">IE_1AD_JA_2</text>
</g>
<!-- J23_TRANSFO_JA_2 -->
<g id="node28" class="node">
<title>J23_TRANSFO_JA_2</title>
<ellipse fill="none" stroke="black" cx="146.26" cy="-585.5" rx="94.34" ry="18"/>
<text xml:space="preserve" text-anchor="middle" x="146.26" y="-580.45" font-family="Times New Roman,serif" font-size="14.00">J23_TRANSFO_JA_2</text>
</g>
<!-- IE_1AD_JA_2&#45;&#45;J23_TRANSFO_JA_2 -->
<g id="edge22" class="edge">
<title>IE_1AD_JA_2&#45;&#45;J23_TRANSFO_JA_2</title>
<path fill="none" stroke="black" d="M509.08,-662.31C432.93,-646.4 289.99,-616.53 208.1,-599.42"/>
<text xml:space="preserve" text-anchor="middle" x="456.71" y="-624.7" font-family="Times New Roman,serif" font-size="14.00">TEL(int+ser+bp)/BLEU</text>
</g>
<!-- BUTTON_1 -->
<g id="node13" class="node">
<title>BUTTON_1</title>
<ellipse fill="none" stroke="black" cx="1313.26" cy="-785" rx="57.49" ry="18"/>
<text xml:space="preserve" text-anchor="middle" x="1313.26" y="-779.95" font-family="Times New Roman,serif" font-size="14.00">BUTTON_1</text>
</g>
<!-- BUTTON_2 -->
<g id="node14" class="node">
<title>BUTTON_2</title>
<ellipse fill="none" stroke="black" cx="1313.26" cy="-674" rx="57.49" ry="18"/>
<text xml:space="preserve" text-anchor="middle" x="1313.26" y="-668.95" font-family="Times New Roman,serif" font-size="14.00">BUTTON_2</text>
</g>
<!-- BUTTON_1&#45;&#45;BUTTON_2 -->
<g id="edge1" class="edge">
<title>BUTTON_1&#45;&#45;BUTTON_2</title>
<path fill="none" stroke="black" stroke-dasharray="5,2" d="M1313.26,-766.97C1313.26,-746.61 1313.26,-712.73 1313.26,-692.27"/>
<text xml:space="preserve" text-anchor="middle" x="1360.88" y="-735.7" font-family="Times New Roman,serif" font-size="14.00">ouvre/ferme(NO)</text>
</g>
<!-- J19_INTERPHONE_BP_1 -->
<g id="node17" class="node">
<title>J19_INTERPHONE_BP_1</title>
<ellipse fill="none" stroke="black" cx="1441.26" cy="-585.5" rx="111.23" ry="18"/>
<text xml:space="preserve" text-anchor="middle" x="1441.26" y="-580.45" font-family="Times New Roman,serif" font-size="14.00">J19_INTERPHONE_BP_1</text>
</g>
<!-- BUTTON_1&#45;&#45;J19_INTERPHONE_BP_1 -->
<g id="edge2" class="edge">
<title>BUTTON_1&#45;&#45;J19_INTERPHONE_BP_1</title>
<path fill="none" stroke="black" d="M1364.27,-776.4C1381.5,-771.36 1399.37,-762.96 1411.26,-749 1447.14,-706.84 1445.97,-635.89 1443.22,-603.52"/>
<text xml:space="preserve" text-anchor="middle" x="1488.25" y="-668.95" font-family="Times New Roman,serif" font-size="14.00">TEL(bp)/BRUN</text>
</g>
<!-- J19_INTERPHONE_BP_2 -->
<g id="node18" class="node">
<title>J19_INTERPHONE_BP_2</title>
<ellipse fill="none" stroke="black" cx="1201.26" cy="-585.5" rx="111.23" ry="18"/>
<text xml:space="preserve" text-anchor="middle" x="1201.26" y="-580.45" font-family="Times New Roman,serif" font-size="14.00">J19_INTERPHONE_BP_2</text>
</g>
<!-- BUTTON_2&#45;&#45;J19_INTERPHONE_BP_2 -->
<g id="edge3" class="edge">
<title>BUTTON_2&#45;&#45;J19_INTERPHONE_BP_2</title>
<path fill="none" stroke="black" d="M1292.45,-656.93C1272.72,-641.69 1243.17,-618.87 1223.1,-603.37"/>
<text xml:space="preserve" text-anchor="middle" x="1314.91" y="-624.7" font-family="Times New Roman,serif" font-size="14.00">TEL(bp)/TRANS</text>
</g>
<!-- ZA3_2 -->
<g id="node15" class="node">
<title>ZA3_2</title>
<polygon fill="none" stroke="black" points="1361.38,-396 1307.13,-396 1307.13,-360 1361.38,-360 1361.38,-396"/>
<text xml:space="preserve" text-anchor="middle" x="1334.26" y="-372.95" font-family="Times New Roman,serif" font-size="14.00">ZA3_2</text>
</g>
<!-- ZA3_7 -->
<g id="node16" class="node">
<title>ZA3_7</title>
<polygon fill="none" stroke="black" points="1289.38,-396 1235.13,-396 1235.13,-360 1289.38,-360 1289.38,-396"/>
<text xml:space="preserve" text-anchor="middle" x="1262.26" y="-372.95" font-family="Times New Roman,serif" font-size="14.00">ZA3_7</text>
</g>
<!-- J21_TRANSFO_BP_1 -->
<g id="node21" class="node">
<title>J21_TRANSFO_BP_1</title>
<ellipse fill="none" stroke="black" cx="1431.26" cy="-497" rx="95.37" ry="18"/>
<text xml:space="preserve" text-anchor="middle" x="1431.26" y="-491.95" font-family="Times New Roman,serif" font-size="14.00">J21_TRANSFO_BP_1</text>
</g>
<!-- J19_INTERPHONE_BP_1&#45;&#45;J21_TRANSFO_BP_1 -->
<g id="edge4" class="edge">
<title>J19_INTERPHONE_BP_1&#45;&#45;J21_TRANSFO_BP_1</title>
<path fill="none" stroke="black" d="M1439.28,-567.41C1437.54,-552.34 1435.01,-530.49 1433.26,-515.35"/>
<text xml:space="preserve" text-anchor="middle" x="1504.65" y="-536.2" font-family="Times New Roman,serif" font-size="14.00">TEL(int+ser+bp)/BRUN</text>
</g>
<!-- J21_TRANSFO_BP_2 -->
<g id="node22" class="node">
<title>J21_TRANSFO_BP_2</title>
<ellipse fill="none" stroke="black" cx="1209.26" cy="-497" rx="95.37" ry="18"/>
<text xml:space="preserve" text-anchor="middle" x="1209.26" y="-491.95" font-family="Times New Roman,serif" font-size="14.00">J21_TRANSFO_BP_2</text>
</g>
<!-- J19_INTERPHONE_BP_2&#45;&#45;J21_TRANSFO_BP_2 -->
<g id="edge5" class="edge">
<title>J19_INTERPHONE_BP_2&#45;&#45;J21_TRANSFO_BP_2</title>
<path fill="none" stroke="black" d="M1202.84,-567.41C1204.23,-552.34 1206.25,-530.49 1207.65,-515.35"/>
<text xml:space="preserve" text-anchor="middle" x="1276.85" y="-536.2" font-family="Times New Roman,serif" font-size="14.00">TEL(int+ser+bp)/TRANS</text>
</g>
<!-- J22_PENETRATION_GACHE_1 -->
<g id="node23" class="node">
<title>J22_PENETRATION_GACHE_1</title>
<ellipse fill="none" stroke="black" cx="842.26" cy="-289.5" rx="136.31" ry="18"/>
<text xml:space="preserve" text-anchor="middle" x="842.26" y="-284.45" font-family="Times New Roman,serif" font-size="14.00">J22_PENETRATION_GACHE_1</text>
</g>
<!-- J21_TRANSFO_GACHE_1&#45;&#45;J22_PENETRATION_GACHE_1 -->
<g id="edge13" class="edge">
<title>J21_TRANSFO_GACHE_1&#45;&#45;J22_PENETRATION_GACHE_1</title>
<path fill="none" stroke="black" d="M843.06,-359.91C842.88,-344.84 842.63,-322.99 842.46,-307.85"/>
<text xml:space="preserve" text-anchor="middle" x="913.35" y="-328.7" font-family="Times New Roman,serif" font-size="14.00">TEL_A(int+ser)/VIOLET</text>
</g>
<!-- J21_TRANSFO_GACHE_2 -->
<g id="node20" class="node">
<title>J21_TRANSFO_GACHE_2</title>
<ellipse fill="none" stroke="black" cx="829.26" cy="-18" rx="115.84" ry="18"/>
<text xml:space="preserve" text-anchor="middle" x="829.26" y="-12.95" font-family="Times New Roman,serif" font-size="14.00">J21_TRANSFO_GACHE_2</text>
</g>
<!-- J21_TRANSFO_GACHE_2&#45;&#45;IE_1AD_NEG -->
<g id="edge20" class="edge">
<title>J21_TRANSFO_GACHE_2&#45;&#45;IE_1AD_NEG</title>
<path fill="none" stroke="black" d="M919.05,-29.73C962.87,-40.52 1006.26,-62.15 1006.26,-105.5 1006.26,-586.5 1006.26,-586.5 1006.26,-586.5 1006.26,-610.53 1005.87,-638.31 1005.57,-655.77"/>
<text xml:space="preserve" text-anchor="middle" x="1048.63" y="-328.7" font-family="Times New Roman,serif" font-size="14.00">TEL/ORANGE</text>
</g>
<!-- J21_TRANSFO_BP_1&#45;&#45;ZA3_2 -->
<g id="edge6" class="edge">
<title>J21_TRANSFO_BP_1&#45;&#45;ZA3_2</title>
<path fill="none" stroke="black" d="M1416.94,-478.74C1398.6,-456.62 1367,-418.49 1348.63,-396.33"/>
<text xml:space="preserve" text-anchor="middle" x="1444.13" y="-447.7" font-family="Times New Roman,serif" font-size="14.00">TEL(bp)/BRUN</text>
</g>
<!-- J21_TRANSFO_BP_2&#45;&#45;ZA3_7 -->
<g id="edge7" class="edge">
<title>J21_TRANSFO_BP_2&#45;&#45;ZA3_7</title>
<path fill="none" stroke="black" d="M1212.56,-478.91C1214.84,-468.69 1218.32,-455.58 1223.01,-444.5 1230.29,-427.29 1241.46,-409.16 1250.02,-396.36"/>
<text xml:space="preserve" text-anchor="middle" x="1270.63" y="-447.7" font-family="Times New Roman,serif" font-size="14.00">TEL(bp)/TRANS</text>
</g>
<!-- J23_BOITE_DERIV_GACHE_1 -->
<g id="node25" class="node">
<title>J23_BOITE_DERIV_GACHE_1</title>
<ellipse fill="none" stroke="black" cx="743.26" cy="-195" rx="133.75" ry="18"/>
<text xml:space="preserve" text-anchor="middle" x="743.26" y="-189.95" font-family="Times New Roman,serif" font-size="14.00">J23_BOITE_DERIV_GACHE_1</text>
</g>
<!-- J22_PENETRATION_GACHE_1&#45;&#45;J23_BOITE_DERIV_GACHE_1 -->
<g id="edge14" class="edge">
<title>J22_PENETRATION_GACHE_1&#45;&#45;J23_BOITE_DERIV_GACHE_1</title>
<path fill="none" stroke="black" d="M824.1,-271.53C806.35,-254.95 779.46,-229.83 761.63,-213.17"/>
<text xml:space="preserve" text-anchor="middle" x="850.1" y="-234.2" font-family="Times New Roman,serif" font-size="14.00">TEL(int+ser)/NOIR</text>
</g>
<!-- J22_PENETRATION_GACHE_2 -->
<g id="node24" class="node">
<title>J22_PENETRATION_GACHE_2</title>
<ellipse fill="none" stroke="black" cx="632.26" cy="-106.5" rx="136.31" ry="18"/>
<text xml:space="preserve" text-anchor="middle" x="632.26" y="-101.45" font-family="Times New Roman,serif" font-size="14.00">J22_PENETRATION_GACHE_2</text>
</g>
<!-- J22_PENETRATION_GACHE_2&#45;&#45;J21_TRANSFO_GACHE_2 -->
<g id="edge19" class="edge">
<title>J22_PENETRATION_GACHE_2&#45;&#45;J21_TRANSFO_GACHE_2</title>
<path fill="none" stroke="black" d="M670.24,-88.82C705.24,-73.46 756.87,-50.78 791.72,-35.48"/>
<text xml:space="preserve" text-anchor="middle" x="822.65" y="-57.2" font-family="Times New Roman,serif" font-size="14.00">TEL_A(int+ser)/ORANGE</text>
</g>
<!-- J23_BOITE_DERIV_GACHE_1&#45;&#45;GACHE_1 -->
<g id="edge15" class="edge">
<title>J23_BOITE_DERIV_GACHE_1&#45;&#45;GACHE_1</title>
<path fill="none" stroke="black" d="M648.24,-207.97C616.15,-216.45 582.59,-230.9 559.26,-255.5 531.88,-284.36 563.1,-312.64 536.26,-342 523.33,-356.14 504.22,-364.58 486.45,-369.61"/>
<text xml:space="preserve" text-anchor="middle" x="628.26" y="-284.45" font-family="Times New Roman,serif" font-size="14.00">TEL(ser)/BLEU_JAUNE</text>
</g>
<!-- J23_BOITE_DERIV_GACHE_2&#45;&#45;J22_PENETRATION_GACHE_2 -->
<g id="edge18" class="edge">
<title>J23_BOITE_DERIV_GACHE_2&#45;&#45;J22_PENETRATION_GACHE_2</title>
<path fill="none" stroke="black" d="M459.26,-177.42C497.25,-162.07 553.44,-139.36 591.39,-124.02"/>
<text xml:space="preserve" text-anchor="middle" x="612.3" y="-145.7" font-family="Times New Roman,serif" font-size="14.00">TEL(int+ser)/MARRON</text>
</g>
<!-- J23_BOITE_DERIV_JA_1 -->
<g id="node29" class="node">
<title>J23_BOITE_DERIV_JA_1</title>
<ellipse fill="none" stroke="black" cx="355.26" cy="-497" rx="112.26" ry="18"/>
<text xml:space="preserve" text-anchor="middle" x="355.26" y="-491.95" font-family="Times New Roman,serif" font-size="14.00">J23_BOITE_DERIV_JA_1</text>
</g>
<!-- J23_TRANSFO_JA_1&#45;&#45;J23_BOITE_DERIV_JA_1 -->
<g id="edge23" class="edge">
<title>J23_TRANSFO_JA_1&#45;&#45;J23_BOITE_DERIV_JA_1</title>
<path fill="none" stroke="black" d="M353.98,-567.27C351.24,-561.78 348.65,-555.56 347.26,-549.5 344.66,-538.21 346.66,-525.34 349.31,-515.28"/>
<text xml:space="preserve" text-anchor="middle" x="414.76" y="-536.2" font-family="Times New Roman,serif" font-size="14.00">TEL_A(int+ser)/JAUNE</text>
</g>
<!-- J23_BOITE_DERIV_JA_2 -->
<g id="node30" class="node">
<title>J23_BOITE_DERIV_JA_2</title>
<ellipse fill="none" stroke="black" cx="112.26" cy="-497" rx="112.26" ry="18"/>
<text xml:space="preserve" text-anchor="middle" x="112.26" y="-491.95" font-family="Times New Roman,serif" font-size="14.00">J23_BOITE_DERIV_JA_2</text>
</g>
<!-- J23_TRANSFO_JA_2&#45;&#45;J23_BOITE_DERIV_JA_2 -->
<g id="edge24" class="edge">
<title>J23_TRANSFO_JA_2&#45;&#45;J23_BOITE_DERIV_JA_2</title>
<path fill="none" stroke="black" d="M139.54,-567.41C133.62,-552.34 125.03,-530.49 119.08,-515.35"/>
<text xml:space="preserve" text-anchor="middle" x="196.05" y="-536.2" font-family="Times New Roman,serif" font-size="14.00">TEL_A(int+ser)/BLEU</text>
</g>
<!-- J23_BOITE_DERIV_JA_1&#45;&#45;IE_JA_1 -->
<g id="edge25" class="edge">
<title>J23_BOITE_DERIV_JA_1&#45;&#45;IE_JA_1</title>
<path fill="none" stroke="black" d="M347.29,-478.74C337.02,-456.49 319.28,-418.05 309.08,-395.95"/>
<text xml:space="preserve" text-anchor="middle" x="385.04" y="-447.7" font-family="Times New Roman,serif" font-size="14.00">TEL(int)/JAUNE</text>
</g>
<!-- J23_BOITE_DERIV_JA_2&#45;&#45;IE_JA_2 -->
<g id="edge26" class="edge">
<title>J23_BOITE_DERIV_JA_2&#45;&#45;IE_JA_2</title>
<path fill="none" stroke="black" d="M124.65,-478.74C140.72,-456.36 168.54,-417.61 184.36,-395.58"/>
<text xml:space="preserve" text-anchor="middle" x="192.73" y="-447.7" font-family="Times New Roman,serif" font-size="14.00">TEL(int)/BLEU</text>
</g>
</g>
</svg>
